<?xml version="1.0" encoding="iso-8859-1"?>
<!-- Generator: Adobe Illustrator 16.0.0, SVG Export Plug-In . SVG Version: 6.00 Build 0)  -->
<!DOCTYPE svg PUBLIC "-//W3C//DTD SVG 1.1//EN" "http://www.w3.org/Graphics/SVG/1.1/DTD/svg11.dtd">
<svg version="1.1" id="Capa_1" xmlns="http://www.w3.org/2000/svg" xmlns:xlink="http://www.w3.org/1999/xlink" x="0px" y="0px"
	 width="31.654px" height="31.654px" viewBox="0 0 31.654 31.654" style="enable-background:new 0 0 31.654 31.654;"
	 xml:space="preserve">
<g>
	<path d="M26.54,18.693c1.057-1.797,1.18-4.049,0.307-5.734c-0.083-0.169-0.177-0.333-0.281-0.49
		c0.104-0.157,0.198-0.321,0.281-0.49c0.872-1.685,0.749-3.938-0.318-5.753c-1.031-1.799-2.927-3.03-4.814-3.121
		c-0.155-0.009-0.366-0.01-0.555,0.003c-0.084-0.168-0.18-0.332-0.283-0.493c-0.964-1.543-2.929-2.565-5.002-2.598V0
		c-2.108,0.003-4.116,1.038-5.094,2.604c-0.104,0.161-0.199,0.325-0.283,0.493c-0.188-0.013-0.4-0.012-0.555-0.003
		C8.053,3.185,6.158,4.416,5.126,6.215c-1.067,1.814-1.19,4.068-0.318,5.753c0.083,0.169,0.177,0.333,0.281,0.49
		c-0.104,0.157-0.198,0.321-0.281,0.49c-0.873,1.686-0.75,3.938,0.307,5.735c0.507,0.881,1.217,1.623,2.025,2.164
		c-1.296,2.401-2.277,7.357-2.277,7.357h3.516l1.787,3.438c0,0,4.534-6.416,5.646-6.697c1.067,0.188,5.674,6.709,5.674,6.709
		l1.787-3.438h3.517c0,0-0.981-4.956-2.277-7.356C25.321,20.316,26.033,19.576,26.54,18.693z M15.873,20.704v-0.006
		c-4.411-0.017-7.982-3.597-7.982-8.01c0-4.384,3.522-7.94,7.891-8.005v0.006c4.411,0.016,7.982,3.595,7.982,8.01
		C23.764,17.082,20.242,20.641,15.873,20.704z"/>
</g>
<g>
</g>
<g>
</g>
<g>
</g>
<g>
</g>
<g>
</g>
<g>
</g>
<g>
</g>
<g>
</g>
<g>
</g>
<g>
</g>
<g>
</g>
<g>
</g>
<g>
</g>
<g>
</g>
<g>
</g>
</svg>
