<svg xmlns="http://www.w3.org/2000/svg" width="54.78" height="66.946" viewBox="0 0 54.78 66.946">
  <g id="picture-icon" transform="translate(-46.836 0.75)">
    <path id="パス_14" data-name="パス 14" d="M134.935,114.994V88.763a2.238,2.238,0,0,0-2.236-2.236H100.142a2.238,2.238,0,0,0-2.236,2.236v26.231a2.238,2.238,0,0,0,2.236,2.236H132.7A2.238,2.238,0,0,0,134.935,114.994Zm-35.113,0V104.753l5.074-5.074a.319.319,0,0,1,.452,0l1.092,1.092a.958.958,0,1,0,1.355-1.355L106.7,98.323a2.236,2.236,0,0,0-3.162,0l-3.719,3.719V88.763a.32.32,0,0,1,.319-.319H132.7a.32.32,0,0,1,.319.319v26.231a.32.32,0,0,1-.319.319h-.935l-11.939-11.939a2.239,2.239,0,0,0-3.162,0l-2.455,2.455-3.36-3.36a.958.958,0,0,0-1.355,1.355l3.586,3.586a1.6,1.6,0,0,0,2.259,0l2.681-2.681a.32.32,0,0,1,.452,0l10.584,10.584H100.142A.32.32,0,0,1,99.822,114.994Z" transform="translate(-43.888 -75.467)" fill="#368480" stroke="#368480" stroke-width="1.5"/>
    <path id="パス_15" data-name="パス 15" d="M97.479,46.835V34.563a.958.958,0,0,0-1.917,0V45.39A10.767,10.767,0,0,0,79.4,53.321H50.461a.959.959,0,0,1-.958-.958V2.875a.959.959,0,0,1,.958-.958H94.6a.959.959,0,0,1,.958.958V29.789a.958.958,0,0,0,1.917,0V2.875A2.878,2.878,0,0,0,94.6,0H50.461a2.878,2.878,0,0,0-2.875,2.875V52.362a2.878,2.878,0,0,0,2.875,2.875H79.328a10.708,10.708,0,0,0,1.858,5.507.958.958,0,1,0,1.582-1.082,8.85,8.85,0,1,1,3.145,2.823.958.958,0,1,0-.9,1.69,10.773,10.773,0,0,0,12.47-17.341Z" fill="#368480" stroke="#368480" stroke-width="1.5"/>
    <path id="パス_16" data-name="パス 16" d="M346.266,389.109a.958.958,0,0,0-.958.958v3.042h-3.042a.958.958,0,1,0,0,1.917h3.042v3.042a.958.958,0,1,0,1.917,0v-3.042h3.042a.958.958,0,1,0,0-1.917h-3.042v-3.042A.958.958,0,0,0,346.266,389.109Z" transform="translate(-256.176 -339.372)" fill="#368480" stroke="#368480" stroke-width="1.5"/>
    <circle id="楕円形_4" data-name="楕円形 4" cx="1.342" cy="1.342" r="1.342" transform="translate(54.851 47.457) rotate(-84.318)" fill="#368480" stroke="#368480" stroke-width="1.5"/>
    <circle id="楕円形_5" data-name="楕円形 5" cx="1.342" cy="1.342" r="1.342" transform="translate(59.597 47.457) rotate(-84.318)" fill="#368480" stroke="#368480" stroke-width="1.5"/>
    <circle id="楕円形_6" data-name="楕円形 6" cx="1.342" cy="1.342" r="1.342" transform="translate(64.342 47.458) rotate(-84.318)" fill="#368480" stroke="#368480" stroke-width="1.5"/>
    <path id="パス_17" data-name="パス 17" d="M236.715,49.238a.958.958,0,0,0,0-1.917h-4.152a.958.958,0,0,0,0,1.917Z" transform="translate(-160.497 -41.272)" fill="#368480" stroke="#368480" stroke-width="1.5"/>
    <path id="パス_18" data-name="パス 18" d="M116.707,49.238a.958.958,0,0,0,0-1.917h-11.34a.958.958,0,0,0,0,1.917Z" transform="translate(-49.56 -41.272)" fill="#368480" stroke="#368480" stroke-width="1.5"/>
    <path id="パス_19" data-name="パス 19" d="M283.1,145.364a3.394,3.394,0,1,0-3.394-3.394A3.4,3.4,0,0,0,283.1,145.364Zm0-4.871a1.477,1.477,0,1,1-1.477,1.477A1.479,1.479,0,0,1,283.1,140.493Z" transform="translate(-202.449 -120.863)" fill="#368480" stroke="#368480" stroke-width="1.5"/>
  </g>
</svg>
