<svg xmlns="http://www.w3.org/2000/svg" width="58.078" height="58.078" viewBox="0 0 58.078 58.078">
  <g id="post-icon" transform="translate(0.75 0.75)">
    <g id="グループ_7" data-name="グループ 7">
      <path id="パス_20" data-name="パス 20" d="M53.042,14.145H3.536A3.54,3.54,0,0,1,0,10.608V3.536A3.54,3.54,0,0,1,3.536,0H53.042a3.54,3.54,0,0,1,3.536,3.536v7.072A3.54,3.54,0,0,1,53.042,14.145ZM3.536,2.357A1.182,1.182,0,0,0,2.357,3.536v7.072a1.182,1.182,0,0,0,1.179,1.179H53.042a1.182,1.182,0,0,0,1.179-1.179V3.536a1.182,1.182,0,0,0-1.179-1.179Z" fill="#368480" stroke="#368480" stroke-width="1.5"/>
    </g>
    <g id="グループ_8" data-name="グループ 8" transform="translate(0 18.859)">
      <path id="パス_21" data-name="パス 21" d="M53.042,45.719H3.536A3.54,3.54,0,0,1,0,42.183V11.536A3.54,3.54,0,0,1,3.536,8H53.042a3.54,3.54,0,0,1,3.536,3.536V42.183A3.54,3.54,0,0,1,53.042,45.719ZM3.536,10.357a1.182,1.182,0,0,0-1.179,1.179V42.183a1.182,1.182,0,0,0,1.179,1.179H53.042a1.182,1.182,0,0,0,1.179-1.179V11.536a1.182,1.182,0,0,0-1.179-1.179Z" transform="translate(0 -8)" fill="#368480" stroke="#368480" stroke-width="1.5"/>
    </g>
    <g id="グループ_9" data-name="グループ 9" transform="translate(28.282 25.932)">
      <path id="パス_22" data-name="パス 22" d="M29.692,34.574H15.533A3.54,3.54,0,0,1,12,31.038v-16.5A3.54,3.54,0,0,1,15.533,11H29.692a3.54,3.54,0,0,1,3.536,3.536v16.5A3.54,3.54,0,0,1,29.692,34.574ZM15.533,13.357a1.182,1.182,0,0,0-1.179,1.179v16.5a1.182,1.182,0,0,0,1.179,1.179H29.692a1.182,1.182,0,0,0,1.179-1.179v-16.5a1.182,1.182,0,0,0-1.179-1.179Z" transform="translate(-11.997 -11)" fill="#368480" stroke="#368480" stroke-width="1.5"/>
    </g>
    <g id="グループ_10" data-name="グループ 10" transform="translate(7.065 28.289)">
      <path id="パス_23" data-name="パス 23" d="M18.32,14.357H4.176a1.179,1.179,0,0,1,0-2.357H18.32a1.179,1.179,0,1,1,0,2.357Z" transform="translate(-2.997 -12)" fill="#368480" stroke="#368480" stroke-width="1.5"/>
    </g>
    <g id="グループ_11" data-name="グループ 11" transform="translate(7.065 35.361)">
      <path id="パス_24" data-name="パス 24" d="M18.32,17.357H4.176a1.179,1.179,0,0,1,0-2.357H18.32a1.179,1.179,0,1,1,0,2.357Z" transform="translate(-2.997 -15)" fill="#368480" stroke="#368480" stroke-width="1.5"/>
    </g>
    <g id="グループ_12" data-name="グループ 12" transform="translate(7.065 42.434)">
      <path id="パス_25" data-name="パス 25" d="M18.32,20.357H4.176a1.179,1.179,0,0,1,0-2.357H18.32a1.179,1.179,0,0,1,0,2.357Z" transform="translate(-2.997 -18)" fill="#368480" stroke="#368480" stroke-width="1.5"/>
    </g>
  </g>
</svg>
